<svg xmlns="http://www.w3.org/2000/svg" width="58" height="58" viewBox="0 0 58 58">
  <rect width="58" height="58" rx="11" style="fill: #f5f5f7"/>
  <path d="M6.6,11.3V37.9H51.1V11.3ZM50.3,31.9H36.6V12.2H50.3ZM35.8,30.7H21.5V26.4H35.8Zm0-5.2H21.5V12.2H35.8ZM20.6,28H7.5V23.4H20.6Zm0,.9v4.3H7.5V28.9Zm.9,2.7H35.8V37H21.5Zm-.9-19.4V22.6H7.5V12.2ZM7.5,34.1H20.6V37H7.5ZM36.6,37V32.7H50.3V37Z" style="fill: #000026"/>
  <text transform="translate(2.7 53.1) scale(0.9 1)" style="font-size: 8px;fill: #000026;font-family: Meiryo"><tspan style="letter-spacing: -0.10002984205960809em">ロ</tspan><tspan x="7.2" y="0" style="letter-spacing: -0.29995389249467563em">ッ</tspan><tspan x="12.8" y="0">ト形式ポ</tspan><tspan x="44.8" y="0" style="letter-spacing: -0.20005968411921618em">ス</tspan><tspan x="51.2" y="0">ト</tspan></text>
</svg>
