<svg xmlns="http://www.w3.org/2000/svg" width="58" height="58" viewBox="0 0 58 58">
  <path d="M29,6.3c-8,0-16.5,1.7-16.5,4.9v18c0,3.2,8.5,4.9,16.5,4.9s16.5-1.7,16.5-4.9v-18C45.5,8,37,6.3,29,6.3Zm0,.9c9.2,0,15.6,2.1,15.6,4S38.2,15.3,29,15.3s-15.6-2.2-15.6-4.1S19.8,7.2,29,7.2Zm0,26c-9.2,0-15.6-2.1-15.6-4V12.9c2.4,2.1,9.2,3.3,15.6,3.3S42.2,15,44.6,12.9V29.2C44.6,31.1,38.2,33.2,29,33.2Z"/>
  <polygon points="34.5 17 34.3 17 34.3 16.8 24.1 16.8 24.1 17.7 33.6 17.7 33.6 21.4 24.1 21.4 24.1 22.3 33.6 22.3 33.6 26 24.1 26 24.1 26.9 33.6 26.9 33.6 30.6 24.1 30.6 24.1 31.6 34.3 31.6 34.3 31.4 34.5 31.4 34.5 17"/>
</svg>
