<svg xmlns="http://www.w3.org/2000/svg" width="58" height="58" viewBox="0 0 58 58">
  <path d="M35.8,39.8a14.5,14.5,0,0,1-3.5-.4,25.7,25.7,0,0,1-11.4-6.8,24.3,24.3,0,0,1-6.8-11.5c-1-4-.3-7.4,1.9-9.6l.6-.6a2.5,2.5,0,0,1,3.6,0l3.9,3.8a2.5,2.5,0,0,1,0,3.6L21.4,21a27.7,27.7,0,0,0,4.8,6.3,27.3,27.3,0,0,0,6.2,4.8l2.7-2.7a2.5,2.5,0,0,1,3.6,0l3.9,3.9a2.2,2.2,0,0,1,.7,1.7,2.3,2.3,0,0,1-.7,1.8l-.7.7A8.4,8.4,0,0,1,35.8,39.8ZM18.4,11.1a1.6,1.6,0,0,0-1.1.5l-.6.6c-2,2-2.5,5-1.7,8.7a24.6,24.6,0,0,0,6.6,11,23.8,23.8,0,0,0,11,6.5c3.6.9,6.7.3,8.6-1.6l.7-.7a1.4,1.4,0,0,0,.4-1.1,1.3,1.3,0,0,0-.4-1L38,30.1a1.6,1.6,0,0,0-2.2,0l-3,3h-.6A28.4,28.4,0,0,1,25.5,28a26.3,26.3,0,0,1-5.1-6.8l-.2-.3.3-.4,2.9-2.9a1.6,1.6,0,0,0,0-2.2l-3.9-3.8A1.6,1.6,0,0,0,18.4,11.1Z" style="fill: #000026"/>
  <path d="M41.9,27.1h-.1a.7.7,0,0,1-.4-.6v-1A13.6,13.6,0,0,0,27.8,11.9H27a.5.5,0,0,1-.5-.5c-.1-.2.2-.5.4-.5h.9A14.7,14.7,0,0,1,42.4,25.5v1.1A.5.5,0,0,1,41.9,27.1Z" style="fill: #000026"/>
  <path d="M37,27.1h-.1c-.3-.1-.5-.3-.4-.6v-1a8.7,8.7,0,0,0-8.7-8.7H27a.5.5,0,0,1-.5-.4c-.1-.3.1-.5.4-.6h.9a9.8,9.8,0,0,1,9.7,9.7v1.1C37.4,26.9,37.2,27.1,37,27.1Z" style="fill: #000026"/>
</svg>
