<svg xmlns="http://www.w3.org/2000/svg" width="58" height="58" viewBox="0 0 58 58">
  <path d="M38.5,25.5c-1.1-5.9-2.3-12.6-4-15a7.2,7.2,0,0,0-5.9-3.2h0a7.3,7.3,0,0,0-5.8,3c-1.7,2.4-2.9,9.1-3.9,15.1-.6,3.2-1.2,6.4-1.8,8.7H40.2C39.6,31.8,39.1,28.7,38.5,25.5Z" style="fill: red;fill-opacity: 0.10196100175380707;fill-rule: evenodd"/>
  <path d="M44,39.1h-.1c-1,0-1.9-.7-2.6-2.1s-1.9-6.6-2.8-11.5-2.3-12.6-4-15a7.2,7.2,0,0,0-5.9-3.2h0a7.3,7.3,0,0,0-5.8,3c-1.7,2.4-2.9,9.1-3.9,15.1S17.2,35.1,16.1,37s-1.6,2-2.6,2.1S10,37,8.3,34.7l.7-.6c1.5,2.1,3.1,4.2,4.4,4.1s1.3-.6,1.9-1.6,1.9-6.4,2.7-11.4,2.3-12.8,4.1-15.4a8.3,8.3,0,0,1,6.5-3.4h0A8,8,0,0,1,35.2,10c1.8,2.5,3,9,4.1,15.4.9,4.8,1.7,9.4,2.7,11.2a2.9,2.9,0,0,0,1.9,1.7c1.3,0,2.9-2,4.3-4l.7.5C47.3,37,45.7,39.1,44,39.1Z" style="fill: red"/>
</svg>
