<svg xmlns="http://www.w3.org/2000/svg" width="58" height="58" viewBox="0 0 58 58">
  <rect x="24" y="7.9" width="1" height="3.27" style="fill: #000026"/>
  <rect x="25" y="23" width="8.7" height="18.47" style="fill: #d3d3d3"/>
  <path d="M33.7,21v1H25V21H24V42.4H34.7V21Zm0,20.4H25V23h8.7Z" style="fill: #000026"/>
  <path d="M25,17.7H24V14.4h1Z" style="fill: #000026"/>
  <polygon points="25 4.6 24 4.6 24 2.6 26 2.6 26 3.6 25 3.6 25 4.6" style="fill: #000026"/>
  <rect x="28.2" y="2.6" width="2.2" height="1" style="fill: #000026"/>
  <polygon points="34.7 4.6 33.7 4.6 33.7 3.6 32.7 3.6 32.7 2.6 34.7 2.6 34.7 4.6" style="fill: #000026"/>
  <rect x="33.7" y="14.4" width="1" height="3.27" style="fill: #000026"/>
  <path d="M34.7,11.2h-1V7.9h1Z" style="fill: #000026"/>
</svg>
