<svg xmlns="http://www.w3.org/2000/svg" width="58" height="58" viewBox="0 0 58 58">
  <rect width="58" height="58" rx="11" style="fill: #f5f5f7"/>
  <path d="M42.6,15.4h-.1l-1.1-.2h-25a4.1,4.1,0,0,0-4.1,4.2V33.8A4.1,4.1,0,0,0,16.4,38h25a4.2,4.2,0,0,0,4.1-4.2V19.4A4.2,4.2,0,0,0,42.6,15.4Zm-2.6,1L28.6,26.6,17.8,16.4Zm4.5,17.4A3.1,3.1,0,0,1,41.4,37h-25a3.1,3.1,0,0,1-3.1-3.2V19.4a3.1,3.1,0,0,1,2.9-3.1L28.6,27.9l13-11.6a3.1,3.1,0,0,1,2.9,3.1Z" style="fill: #000026"/>
  <text transform="translate(14.7 53.1)" style="font-size: 8px;fill: #000026;font-family: Meiryo"><tspan style="letter-spacing: 0.04998779296875em">E</tspan><tspan x="5.3" y="0">メール</tspan></text>
</svg>
