<svg xmlns="http://www.w3.org/2000/svg" width="58" height="58" viewBox="0 0 58 58">
  <path d="M19.6,38.2A53,53,0,0,1,8.4,36.8H8V12.6H50.3V33.5h-.4a61.1,61.1,0,0,0-18.4,2.7A41.6,41.6,0,0,1,19.6,38.2ZM8.9,36.1c11.4,2.3,16.5.9,22.3-.7a58.1,58.1,0,0,1,18.2-2.7V13.5H8.9Z" style="fill: #000026"/>
  <path d="M29.2,30.9a5.3,5.3,0,0,1,0-10.6,5.3,5.3,0,0,1,0,10.6Zm0-9.8a4.5,4.5,0,1,0,4.4,4.5A4.5,4.5,0,0,0,29.2,21.1Z" style="fill: #000026"/>
  <g style="isolation: isolate">
    <path d="M27.4,28.4V23.3h3.5v.8H28.5v1.2h2.1v.9H28.5v2.2Z" style="fill: #000026"/>
  </g>
</svg>
