<svg xmlns="http://www.w3.org/2000/svg" width="58" height="58" viewBox="0 0 58 58">
  <rect width="58" height="58" rx="11" style="fill: #f5f5f7"/>
  <path d="M50.7,14.7a6.4,6.4,0,0,0-12.8-.5H6.6V38.8H44.8V21A6.3,6.3,0,0,0,50.7,14.7Zm-6.9,5.4a5.4,5.4,0,0,1-4.9-4.9h4.9ZM7.6,37.9V15.2H37.9A6.4,6.4,0,0,0,43.8,21V37.9ZM44.8,20.1V14.2H38.9a5.3,5.3,0,0,1,5.4-4.9,5.4,5.4,0,0,1,5.4,5.4A5.5,5.5,0,0,1,44.8,20.1Z" style="fill: #000026"/>
  <text transform="translate(13.3 53.1)" style="font-size: 8px;fill: #000026;font-family: Meiryo">かんばん</text>
</svg>
